<mxfile host="app.diagrams.net" agent="Mozilla/5.0 (Windows NT 10.0; Win64; x64) AppleWebKit/537.36 (KHTML, like Gecko) Chrome/128.0.0.0 Safari/537.36" version="24.7.16" pages="2">
  <diagram name="DataPath" id="xyNGtXaQ9cBERK6BHR3z">
    <mxGraphModel dx="875" dy="464" grid="1" gridSize="10" guides="1" tooltips="1" connect="1" arrows="1" fold="1" page="1" pageScale="1" pageWidth="827" pageHeight="1169" math="0" shadow="0">
      <root>
        <mxCell id="0" />
        <mxCell id="1" parent="0" />
        <mxCell id="F0GJQ-Ep4hRnLr_it0pJ-3" value="Data&lt;div&gt;Stack&lt;/div&gt;" style="swimlane;fontStyle=1;align=center;verticalAlign=middle;childLayout=stackLayout;horizontal=1;startSize=100;horizontalStack=0;resizeParent=1;resizeParentMax=0;resizeLast=0;collapsible=1;marginBottom=0;whiteSpace=wrap;html=1;" vertex="1" parent="1">
          <mxGeometry x="210" y="200" width="100" height="150" as="geometry" />
        </mxCell>
        <mxCell id="F0GJQ-Ep4hRnLr_it0pJ-4" value="&lt;div style=&quot;&quot;&gt;&lt;span style=&quot;background-color: initial;&quot;&gt;TOS&lt;/span&gt;&lt;/div&gt;" style="text;strokeColor=none;fillColor=none;align=center;verticalAlign=middle;spacingLeft=4;spacingRight=4;overflow=hidden;rotatable=0;points=[[0,0.5],[1,0.5]];portConstraint=eastwest;whiteSpace=wrap;html=1;" vertex="1" parent="F0GJQ-Ep4hRnLr_it0pJ-3">
          <mxGeometry y="100" width="100" height="50" as="geometry" />
        </mxCell>
        <mxCell id="F0GJQ-Ep4hRnLr_it0pJ-7" value="" style="endArrow=classic;html=1;rounded=0;entryX=-0.005;entryY=0.202;entryDx=0;entryDy=0;entryPerimeter=0;" edge="1" parent="1" target="F0GJQ-Ep4hRnLr_it0pJ-3">
          <mxGeometry width="50" height="50" relative="1" as="geometry">
            <mxPoint x="170" y="230" as="sourcePoint" />
            <mxPoint x="410" y="270" as="targetPoint" />
          </mxGeometry>
        </mxCell>
        <mxCell id="F0GJQ-Ep4hRnLr_it0pJ-8" value="push" style="text;html=1;align=center;verticalAlign=middle;whiteSpace=wrap;rounded=0;" vertex="1" parent="1">
          <mxGeometry x="140" y="223" width="30" height="14" as="geometry" />
        </mxCell>
        <mxCell id="F0GJQ-Ep4hRnLr_it0pJ-9" value="pop" style="text;html=1;align=center;verticalAlign=middle;whiteSpace=wrap;rounded=0;" vertex="1" parent="1">
          <mxGeometry x="140" y="240" width="30" height="14" as="geometry" />
        </mxCell>
        <mxCell id="F0GJQ-Ep4hRnLr_it0pJ-10" value="" style="endArrow=classic;html=1;rounded=0;entryX=-0.005;entryY=0.202;entryDx=0;entryDy=0;entryPerimeter=0;" edge="1" parent="1">
          <mxGeometry width="50" height="50" relative="1" as="geometry">
            <mxPoint x="170" y="247" as="sourcePoint" />
            <mxPoint x="210" y="247" as="targetPoint" />
          </mxGeometry>
        </mxCell>
        <mxCell id="F0GJQ-Ep4hRnLr_it0pJ-11" value="wr_first" style="text;html=1;align=center;verticalAlign=middle;whiteSpace=wrap;rounded=0;" vertex="1" parent="1">
          <mxGeometry x="120" y="260" width="50" height="14" as="geometry" />
        </mxCell>
        <mxCell id="F0GJQ-Ep4hRnLr_it0pJ-12" value="" style="endArrow=classic;html=1;rounded=0;entryX=-0.005;entryY=0.202;entryDx=0;entryDy=0;entryPerimeter=0;" edge="1" parent="1">
          <mxGeometry width="50" height="50" relative="1" as="geometry">
            <mxPoint x="170" y="267" as="sourcePoint" />
            <mxPoint x="210" y="267" as="targetPoint" />
          </mxGeometry>
        </mxCell>
        <mxCell id="F0GJQ-Ep4hRnLr_it0pJ-13" value="latch_ar" style="text;html=1;align=center;verticalAlign=middle;whiteSpace=wrap;rounded=0;" vertex="1" parent="1">
          <mxGeometry x="595" y="398" width="60" height="14" as="geometry" />
        </mxCell>
        <mxCell id="F0GJQ-Ep4hRnLr_it0pJ-14" value="" style="endArrow=classic;html=1;rounded=0;exitX=0;exitY=0.5;exitDx=0;exitDy=0;" edge="1" parent="1" source="F0GJQ-Ep4hRnLr_it0pJ-13">
          <mxGeometry width="50" height="50" relative="1" as="geometry">
            <mxPoint x="660" y="405" as="sourcePoint" />
            <mxPoint x="580" y="405" as="targetPoint" />
          </mxGeometry>
        </mxCell>
        <mxCell id="F0GJQ-Ep4hRnLr_it0pJ-15" value="MUX" style="rounded=0;whiteSpace=wrap;html=1;" vertex="1" parent="1">
          <mxGeometry x="190" y="400" width="50" height="20" as="geometry" />
        </mxCell>
        <mxCell id="F0GJQ-Ep4hRnLr_it0pJ-27" style="edgeStyle=orthogonalEdgeStyle;rounded=0;orthogonalLoop=1;jettySize=auto;html=1;entryX=0.75;entryY=0;entryDx=0;entryDy=0;" edge="1" parent="1" source="F0GJQ-Ep4hRnLr_it0pJ-16" target="F0GJQ-Ep4hRnLr_it0pJ-25">
          <mxGeometry relative="1" as="geometry" />
        </mxCell>
        <mxCell id="F0GJQ-Ep4hRnLr_it0pJ-16" value="MUX" style="rounded=0;whiteSpace=wrap;html=1;" vertex="1" parent="1">
          <mxGeometry x="270" y="400" width="50" height="20" as="geometry" />
        </mxCell>
        <mxCell id="F0GJQ-Ep4hRnLr_it0pJ-17" value="" style="endArrow=classic;html=1;rounded=0;entryX=0.75;entryY=0;entryDx=0;entryDy=0;exitX=0.166;exitY=0.979;exitDx=0;exitDy=0;exitPerimeter=0;" edge="1" parent="1" source="F0GJQ-Ep4hRnLr_it0pJ-4" target="F0GJQ-Ep4hRnLr_it0pJ-15">
          <mxGeometry width="50" height="50" relative="1" as="geometry">
            <mxPoint x="230" y="351" as="sourcePoint" />
            <mxPoint x="410" y="270" as="targetPoint" />
          </mxGeometry>
        </mxCell>
        <mxCell id="F0GJQ-Ep4hRnLr_it0pJ-18" value="" style="endArrow=classic;html=1;rounded=0;entryX=0.75;entryY=0;entryDx=0;entryDy=0;" edge="1" parent="1">
          <mxGeometry width="50" height="50" relative="1" as="geometry">
            <mxPoint x="281" y="320" as="sourcePoint" />
            <mxPoint x="281" y="400" as="targetPoint" />
          </mxGeometry>
        </mxCell>
        <mxCell id="F0GJQ-Ep4hRnLr_it0pJ-19" value="(0)" style="text;html=1;align=center;verticalAlign=middle;whiteSpace=wrap;rounded=0;" vertex="1" parent="1">
          <mxGeometry x="187" y="370" width="30" height="14" as="geometry" />
        </mxCell>
        <mxCell id="F0GJQ-Ep4hRnLr_it0pJ-20" value="(0)" style="text;html=1;align=center;verticalAlign=middle;whiteSpace=wrap;rounded=0;" vertex="1" parent="1">
          <mxGeometry x="291" y="370" width="30" height="14" as="geometry" />
        </mxCell>
        <mxCell id="F0GJQ-Ep4hRnLr_it0pJ-21" value="" style="endArrow=classic;html=1;rounded=0;entryX=0.25;entryY=0;entryDx=0;entryDy=0;exitX=0.5;exitY=1;exitDx=0;exitDy=0;" edge="1" parent="1" source="F0GJQ-Ep4hRnLr_it0pJ-19" target="F0GJQ-Ep4hRnLr_it0pJ-15">
          <mxGeometry width="50" height="50" relative="1" as="geometry">
            <mxPoint x="237" y="359" as="sourcePoint" />
            <mxPoint x="238" y="410" as="targetPoint" />
          </mxGeometry>
        </mxCell>
        <mxCell id="F0GJQ-Ep4hRnLr_it0pJ-23" value="" style="endArrow=classic;html=1;rounded=0;entryX=0.498;entryY=-0.111;entryDx=0;entryDy=0;exitX=0.5;exitY=1;exitDx=0;exitDy=0;entryPerimeter=0;" edge="1" parent="1" source="F0GJQ-Ep4hRnLr_it0pJ-20">
          <mxGeometry width="50" height="50" relative="1" as="geometry">
            <mxPoint x="224" y="394" as="sourcePoint" />
            <mxPoint x="305.9" y="397.78" as="targetPoint" />
          </mxGeometry>
        </mxCell>
        <mxCell id="F0GJQ-Ep4hRnLr_it0pJ-28" style="edgeStyle=orthogonalEdgeStyle;rounded=0;orthogonalLoop=1;jettySize=auto;html=1;startArrow=classic;startFill=1;endArrow=none;endFill=0;" edge="1" parent="1" source="F0GJQ-Ep4hRnLr_it0pJ-25">
          <mxGeometry relative="1" as="geometry">
            <mxPoint x="190" y="490" as="targetPoint" />
          </mxGeometry>
        </mxCell>
        <mxCell id="F0GJQ-Ep4hRnLr_it0pJ-42" style="edgeStyle=orthogonalEdgeStyle;rounded=0;orthogonalLoop=1;jettySize=auto;html=1;entryX=1;entryY=0.75;entryDx=0;entryDy=0;" edge="1" parent="1" source="F0GJQ-Ep4hRnLr_it0pJ-25" target="F0GJQ-Ep4hRnLr_it0pJ-40">
          <mxGeometry relative="1" as="geometry">
            <Array as="points">
              <mxPoint x="260" y="550" />
              <mxPoint x="406" y="550" />
              <mxPoint x="406" y="333" />
            </Array>
          </mxGeometry>
        </mxCell>
        <mxCell id="F0GJQ-Ep4hRnLr_it0pJ-43" style="edgeStyle=orthogonalEdgeStyle;rounded=0;orthogonalLoop=1;jettySize=auto;html=1;entryX=0.003;entryY=0.665;entryDx=0;entryDy=0;entryPerimeter=0;" edge="1" parent="1" target="F0GJQ-Ep4hRnLr_it0pJ-32">
          <mxGeometry relative="1" as="geometry">
            <mxPoint x="261" y="520" as="sourcePoint" />
            <mxPoint x="491" y="285" as="targetPoint" />
            <Array as="points">
              <mxPoint x="261" y="550" />
              <mxPoint x="406" y="550" />
              <mxPoint x="406" y="310" />
            </Array>
          </mxGeometry>
        </mxCell>
        <mxCell id="F0GJQ-Ep4hRnLr_it0pJ-51" style="edgeStyle=orthogonalEdgeStyle;rounded=0;orthogonalLoop=1;jettySize=auto;html=1;entryX=0.25;entryY=1;entryDx=0;entryDy=0;" edge="1" parent="1" source="F0GJQ-Ep4hRnLr_it0pJ-25" target="F0GJQ-Ep4hRnLr_it0pJ-49">
          <mxGeometry relative="1" as="geometry">
            <Array as="points">
              <mxPoint x="260" y="550" />
              <mxPoint x="528" y="550" />
            </Array>
          </mxGeometry>
        </mxCell>
        <mxCell id="F0GJQ-Ep4hRnLr_it0pJ-25" value="ALU" style="shape=trapezoid;perimeter=trapezoidPerimeter;whiteSpace=wrap;html=1;fixedSize=1;size=33.000000000000114;flipV=1;" vertex="1" parent="1">
          <mxGeometry x="200" y="460" width="120" height="60" as="geometry" />
        </mxCell>
        <mxCell id="F0GJQ-Ep4hRnLr_it0pJ-26" style="edgeStyle=orthogonalEdgeStyle;rounded=0;orthogonalLoop=1;jettySize=auto;html=1;" edge="1" parent="1" source="F0GJQ-Ep4hRnLr_it0pJ-15">
          <mxGeometry relative="1" as="geometry">
            <mxPoint x="220" y="460" as="targetPoint" />
          </mxGeometry>
        </mxCell>
        <mxCell id="F0GJQ-Ep4hRnLr_it0pJ-29" value="~-+/*^&lt;div&gt;+1 -1&lt;/div&gt;" style="text;html=1;align=center;verticalAlign=middle;whiteSpace=wrap;rounded=0;" vertex="1" parent="1">
          <mxGeometry x="138" y="485" width="50" height="14" as="geometry" />
        </mxCell>
        <mxCell id="F0GJQ-Ep4hRnLr_it0pJ-31" value="top_z_flag" style="text;html=1;align=center;verticalAlign=middle;whiteSpace=wrap;rounded=0;" vertex="1" parent="1">
          <mxGeometry x="150" y="294" width="60" height="14" as="geometry" />
        </mxCell>
        <mxCell id="F0GJQ-Ep4hRnLr_it0pJ-45" style="edgeStyle=orthogonalEdgeStyle;rounded=0;orthogonalLoop=1;jettySize=auto;html=1;entryX=1;entryY=0.25;entryDx=0;entryDy=0;" edge="1" parent="1" source="F0GJQ-Ep4hRnLr_it0pJ-32" target="F0GJQ-Ep4hRnLr_it0pJ-40">
          <mxGeometry relative="1" as="geometry">
            <Array as="points">
              <mxPoint x="423" y="270" />
              <mxPoint x="423" y="300" />
            </Array>
          </mxGeometry>
        </mxCell>
        <mxCell id="F0GJQ-Ep4hRnLr_it0pJ-32" value="Data&lt;div&gt;Memory&lt;/div&gt;" style="swimlane;fontStyle=1;align=center;verticalAlign=middle;childLayout=stackLayout;horizontal=1;startSize=100;horizontalStack=0;resizeParent=1;resizeParentMax=0;resizeLast=0;collapsible=1;marginBottom=0;whiteSpace=wrap;html=1;" vertex="1" parent="1">
          <mxGeometry x="490" y="210" width="100" height="150" as="geometry" />
        </mxCell>
        <mxCell id="F0GJQ-Ep4hRnLr_it0pJ-34" value="IO" style="text;strokeColor=none;fillColor=none;align=center;verticalAlign=middle;spacingLeft=4;spacingRight=4;overflow=hidden;rotatable=0;points=[[0,0.5],[1,0.5]];portConstraint=eastwest;whiteSpace=wrap;html=1;" vertex="1" parent="F0GJQ-Ep4hRnLr_it0pJ-32">
          <mxGeometry y="100" width="100" height="50" as="geometry" />
        </mxCell>
        <mxCell id="F0GJQ-Ep4hRnLr_it0pJ-35" value="read" style="text;html=1;align=center;verticalAlign=middle;whiteSpace=wrap;rounded=0;" vertex="1" parent="1">
          <mxGeometry x="616" y="254" width="40" height="14" as="geometry" />
        </mxCell>
        <mxCell id="F0GJQ-Ep4hRnLr_it0pJ-36" value="" style="endArrow=classic;html=1;rounded=0;entryX=0.996;entryY=0.335;entryDx=0;entryDy=0;entryPerimeter=0;exitX=0;exitY=0.5;exitDx=0;exitDy=0;" edge="1" parent="1" source="F0GJQ-Ep4hRnLr_it0pJ-35" target="F0GJQ-Ep4hRnLr_it0pJ-32">
          <mxGeometry width="50" height="50" relative="1" as="geometry">
            <mxPoint x="700" y="261" as="sourcePoint" />
            <mxPoint x="740" y="261" as="targetPoint" />
          </mxGeometry>
        </mxCell>
        <mxCell id="F0GJQ-Ep4hRnLr_it0pJ-37" value="write" style="text;html=1;align=center;verticalAlign=middle;whiteSpace=wrap;rounded=0;" vertex="1" parent="1">
          <mxGeometry x="616" y="273" width="40" height="14" as="geometry" />
        </mxCell>
        <mxCell id="F0GJQ-Ep4hRnLr_it0pJ-38" value="" style="endArrow=classic;html=1;rounded=0;entryX=0.997;entryY=0.46;entryDx=0;entryDy=0;entryPerimeter=0;exitX=0;exitY=0.5;exitDx=0;exitDy=0;" edge="1" source="F0GJQ-Ep4hRnLr_it0pJ-37" parent="1" target="F0GJQ-Ep4hRnLr_it0pJ-32">
          <mxGeometry width="50" height="50" relative="1" as="geometry">
            <mxPoint x="696" y="281" as="sourcePoint" />
            <mxPoint x="590" y="280" as="targetPoint" />
          </mxGeometry>
        </mxCell>
        <mxCell id="F0GJQ-Ep4hRnLr_it0pJ-40" value="M&lt;div&gt;U&lt;/div&gt;&lt;div&gt;X&lt;/div&gt;" style="rounded=0;whiteSpace=wrap;html=1;" vertex="1" parent="1">
          <mxGeometry x="340" y="283" width="16" height="67" as="geometry" />
        </mxCell>
        <mxCell id="F0GJQ-Ep4hRnLr_it0pJ-41" style="edgeStyle=orthogonalEdgeStyle;rounded=0;orthogonalLoop=1;jettySize=auto;html=1;entryX=1.016;entryY=0.339;entryDx=0;entryDy=0;entryPerimeter=0;" edge="1" parent="1" source="F0GJQ-Ep4hRnLr_it0pJ-40" target="F0GJQ-Ep4hRnLr_it0pJ-4">
          <mxGeometry relative="1" as="geometry" />
        </mxCell>
        <mxCell id="F0GJQ-Ep4hRnLr_it0pJ-44" value="data_in" style="text;html=1;align=center;verticalAlign=middle;whiteSpace=wrap;rounded=0;" vertex="1" parent="1">
          <mxGeometry x="442" y="294" width="50" height="14" as="geometry" />
        </mxCell>
        <mxCell id="F0GJQ-Ep4hRnLr_it0pJ-46" value="data_out" style="text;html=1;align=center;verticalAlign=middle;whiteSpace=wrap;rounded=0;" vertex="1" parent="1">
          <mxGeometry x="440" y="254" width="50" height="14" as="geometry" />
        </mxCell>
        <mxCell id="F0GJQ-Ep4hRnLr_it0pJ-47" value="AR" style="rounded=0;whiteSpace=wrap;html=1;" vertex="1" parent="1">
          <mxGeometry x="505" y="390" width="70" height="30" as="geometry" />
        </mxCell>
        <mxCell id="F0GJQ-Ep4hRnLr_it0pJ-48" style="edgeStyle=orthogonalEdgeStyle;rounded=0;orthogonalLoop=1;jettySize=auto;html=1;entryX=0.5;entryY=1;entryDx=0;entryDy=0;entryPerimeter=0;" edge="1" parent="1" source="F0GJQ-Ep4hRnLr_it0pJ-47" target="F0GJQ-Ep4hRnLr_it0pJ-34">
          <mxGeometry relative="1" as="geometry" />
        </mxCell>
        <mxCell id="F0GJQ-Ep4hRnLr_it0pJ-50" style="edgeStyle=orthogonalEdgeStyle;rounded=0;orthogonalLoop=1;jettySize=auto;html=1;" edge="1" parent="1" source="F0GJQ-Ep4hRnLr_it0pJ-49" target="F0GJQ-Ep4hRnLr_it0pJ-47">
          <mxGeometry relative="1" as="geometry" />
        </mxCell>
        <mxCell id="F0GJQ-Ep4hRnLr_it0pJ-49" value="MUX" style="rounded=0;whiteSpace=wrap;html=1;" vertex="1" parent="1">
          <mxGeometry x="515" y="440" width="50" height="20" as="geometry" />
        </mxCell>
        <mxCell id="F0GJQ-Ep4hRnLr_it0pJ-55" style="edgeStyle=orthogonalEdgeStyle;rounded=0;orthogonalLoop=1;jettySize=auto;html=1;entryX=0.75;entryY=1;entryDx=0;entryDy=0;" edge="1" parent="1" source="F0GJQ-Ep4hRnLr_it0pJ-54" target="F0GJQ-Ep4hRnLr_it0pJ-49">
          <mxGeometry relative="1" as="geometry">
            <Array as="points">
              <mxPoint x="553" y="640" />
            </Array>
          </mxGeometry>
        </mxCell>
        <mxCell id="F0GJQ-Ep4hRnLr_it0pJ-58" style="edgeStyle=orthogonalEdgeStyle;rounded=0;orthogonalLoop=1;jettySize=auto;html=1;entryX=1;entryY=0.5;entryDx=0;entryDy=0;" edge="1" parent="1" source="F0GJQ-Ep4hRnLr_it0pJ-54" target="F0GJQ-Ep4hRnLr_it0pJ-40">
          <mxGeometry relative="1" as="geometry">
            <Array as="points">
              <mxPoint x="390" y="600" />
              <mxPoint x="390" y="317" />
            </Array>
          </mxGeometry>
        </mxCell>
        <mxCell id="F0GJQ-Ep4hRnLr_it0pJ-54" value="Control&lt;div&gt;Unit&lt;/div&gt;" style="rounded=0;whiteSpace=wrap;html=1;" vertex="1" parent="1">
          <mxGeometry x="210" y="585" width="120" height="60" as="geometry" />
        </mxCell>
        <mxCell id="F0GJQ-Ep4hRnLr_it0pJ-30" style="edgeStyle=orthogonalEdgeStyle;rounded=0;orthogonalLoop=1;jettySize=auto;html=1;entryX=0;entryY=0.5;entryDx=0;entryDy=0;" edge="1" parent="1" source="F0GJQ-Ep4hRnLr_it0pJ-4" target="F0GJQ-Ep4hRnLr_it0pJ-54">
          <mxGeometry relative="1" as="geometry">
            <mxPoint x="120" y="400" as="targetPoint" />
            <Array as="points">
              <mxPoint x="100" y="310" />
              <mxPoint x="100" y="615" />
            </Array>
          </mxGeometry>
        </mxCell>
        <mxCell id="F0GJQ-Ep4hRnLr_it0pJ-56" value="data_address" style="text;html=1;align=center;verticalAlign=middle;whiteSpace=wrap;rounded=0;" vertex="1" parent="1">
          <mxGeometry x="339" y="619" width="60" height="14" as="geometry" />
        </mxCell>
        <mxCell id="F0GJQ-Ep4hRnLr_it0pJ-59" value="&lt;div&gt;data&lt;/div&gt;" style="text;html=1;align=center;verticalAlign=middle;whiteSpace=wrap;rounded=0;" vertex="1" parent="1">
          <mxGeometry x="322" y="585" width="60" height="14" as="geometry" />
        </mxCell>
        <mxCell id="WhpVicAc4Z9Bo1Y0PFvm-3" value="top_n&lt;span style=&quot;background-color: initial;&quot;&gt;_flag&lt;/span&gt;" style="text;html=1;align=center;verticalAlign=middle;whiteSpace=wrap;rounded=0;" vertex="1" parent="1">
          <mxGeometry x="150" y="311.97" width="60" height="14" as="geometry" />
        </mxCell>
        <mxCell id="WhpVicAc4Z9Bo1Y0PFvm-4" style="edgeStyle=orthogonalEdgeStyle;rounded=0;orthogonalLoop=1;jettySize=auto;html=1;" edge="1" parent="1">
          <mxGeometry relative="1" as="geometry">
            <mxPoint x="210" y="600" as="targetPoint" />
            <mxPoint x="210" y="327.97" as="sourcePoint" />
            <Array as="points">
              <mxPoint x="120" y="328" />
              <mxPoint x="120" y="600" />
              <mxPoint x="210" y="600" />
            </Array>
          </mxGeometry>
        </mxCell>
      </root>
    </mxGraphModel>
  </diagram>
  <diagram id="n5ukwxjd8gQNU9gV6K4n" name="ControlUnit">
    <mxGraphModel dx="875" dy="464" grid="1" gridSize="10" guides="1" tooltips="1" connect="1" arrows="1" fold="1" page="1" pageScale="1" pageWidth="827" pageHeight="1169" math="0" shadow="0">
      <root>
        <mxCell id="0" />
        <mxCell id="1" parent="0" />
        <mxCell id="tstHiSYRYPBJOc6jN1E3-1" style="edgeStyle=orthogonalEdgeStyle;rounded=0;orthogonalLoop=1;jettySize=auto;html=1;entryX=1;entryY=0.25;entryDx=0;entryDy=0;exitX=0;exitY=0.25;exitDx=0;exitDy=0;" edge="1" parent="1">
          <mxGeometry relative="1" as="geometry">
            <mxPoint x="294" y="212.5" as="sourcePoint" />
            <mxPoint x="210" y="212.5" as="targetPoint" />
            <Array as="points" />
          </mxGeometry>
        </mxCell>
        <mxCell id="7wwF4Dl2uaCq_uWaHLKl-1" style="edgeStyle=orthogonalEdgeStyle;rounded=0;orthogonalLoop=1;jettySize=auto;html=1;entryX=0.25;entryY=1;entryDx=0;entryDy=0;" edge="1" parent="1" source="CvzYMo84_RFbZCVl5hGf-1" target="mlzkGg46ePK4YBn9WfPT-5">
          <mxGeometry relative="1" as="geometry" />
        </mxCell>
        <mxCell id="CvzYMo84_RFbZCVl5hGf-1" value="Instruction&lt;div&gt;Decoder&lt;/div&gt;" style="rounded=0;whiteSpace=wrap;html=1;" vertex="1" parent="1">
          <mxGeometry x="294" y="190" width="86" height="150" as="geometry" />
        </mxCell>
        <mxCell id="CvzYMo84_RFbZCVl5hGf-2" value="DataPath" style="rounded=0;whiteSpace=wrap;html=1;" vertex="1" parent="1">
          <mxGeometry x="130" y="190" width="80" height="150" as="geometry" />
        </mxCell>
        <mxCell id="tstHiSYRYPBJOc6jN1E3-2" value="data" style="text;html=1;align=center;verticalAlign=middle;whiteSpace=wrap;rounded=0;" vertex="1" parent="1">
          <mxGeometry x="229" y="192" width="50" height="20" as="geometry" />
        </mxCell>
        <mxCell id="tstHiSYRYPBJOc6jN1E3-3" style="edgeStyle=orthogonalEdgeStyle;rounded=0;orthogonalLoop=1;jettySize=auto;html=1;entryX=1;entryY=0.25;entryDx=0;entryDy=0;exitX=0;exitY=0.25;exitDx=0;exitDy=0;" edge="1" parent="1">
          <mxGeometry relative="1" as="geometry">
            <mxPoint x="294" y="250.5" as="sourcePoint" />
            <mxPoint x="210" y="250.5" as="targetPoint" />
            <Array as="points" />
          </mxGeometry>
        </mxCell>
        <mxCell id="tstHiSYRYPBJOc6jN1E3-4" value="data_address" style="text;html=1;align=center;verticalAlign=middle;whiteSpace=wrap;rounded=0;" vertex="1" parent="1">
          <mxGeometry x="229" y="230" width="50" height="20" as="geometry" />
        </mxCell>
        <mxCell id="tstHiSYRYPBJOc6jN1E3-5" style="edgeStyle=orthogonalEdgeStyle;rounded=0;orthogonalLoop=1;jettySize=auto;html=1;entryX=1;entryY=0.25;entryDx=0;entryDy=0;exitX=0;exitY=0.25;exitDx=0;exitDy=0;startArrow=classic;startFill=1;endArrow=none;endFill=0;" edge="1" parent="1">
          <mxGeometry relative="1" as="geometry">
            <mxPoint x="294" y="290.5" as="sourcePoint" />
            <mxPoint x="210" y="290.5" as="targetPoint" />
            <Array as="points" />
          </mxGeometry>
        </mxCell>
        <mxCell id="tstHiSYRYPBJOc6jN1E3-6" value="top_z_flag" style="text;html=1;align=center;verticalAlign=middle;whiteSpace=wrap;rounded=0;" vertex="1" parent="1">
          <mxGeometry x="229" y="270" width="50" height="20" as="geometry" />
        </mxCell>
        <mxCell id="mlzkGg46ePK4YBn9WfPT-8" style="edgeStyle=orthogonalEdgeStyle;rounded=0;orthogonalLoop=1;jettySize=auto;html=1;entryX=0.5;entryY=0;entryDx=0;entryDy=0;" edge="1" parent="1" source="mlzkGg46ePK4YBn9WfPT-1" target="CvzYMo84_RFbZCVl5hGf-1">
          <mxGeometry relative="1" as="geometry" />
        </mxCell>
        <mxCell id="mlzkGg46ePK4YBn9WfPT-1" value="Program&lt;div&gt;Memory&lt;/div&gt;" style="rounded=0;whiteSpace=wrap;html=1;" vertex="1" parent="1">
          <mxGeometry x="500" y="90" width="90" height="130" as="geometry" />
        </mxCell>
        <mxCell id="7wwF4Dl2uaCq_uWaHLKl-3" style="edgeStyle=orthogonalEdgeStyle;rounded=0;orthogonalLoop=1;jettySize=auto;html=1;entryX=0.5;entryY=1;entryDx=0;entryDy=0;" edge="1" parent="1" source="mlzkGg46ePK4YBn9WfPT-2" target="mlzkGg46ePK4YBn9WfPT-5">
          <mxGeometry relative="1" as="geometry">
            <Array as="points">
              <mxPoint x="670" y="380" />
              <mxPoint x="545" y="380" />
            </Array>
          </mxGeometry>
        </mxCell>
        <mxCell id="mlzkGg46ePK4YBn9WfPT-2" value="Return&lt;div&gt;Stack&lt;/div&gt;" style="rounded=0;whiteSpace=wrap;html=1;" vertex="1" parent="1">
          <mxGeometry x="640" y="195" width="90" height="90" as="geometry" />
        </mxCell>
        <mxCell id="mlzkGg46ePK4YBn9WfPT-4" style="edgeStyle=orthogonalEdgeStyle;rounded=0;orthogonalLoop=1;jettySize=auto;html=1;" edge="1" parent="1" source="mlzkGg46ePK4YBn9WfPT-3" target="mlzkGg46ePK4YBn9WfPT-1">
          <mxGeometry relative="1" as="geometry" />
        </mxCell>
        <mxCell id="mlzkGg46ePK4YBn9WfPT-7" value="+1" style="edgeStyle=orthogonalEdgeStyle;rounded=0;orthogonalLoop=1;jettySize=auto;html=1;entryX=0.912;entryY=1.023;entryDx=0;entryDy=0;entryPerimeter=0;" edge="1" parent="1" source="mlzkGg46ePK4YBn9WfPT-3" target="mlzkGg46ePK4YBn9WfPT-5">
          <mxGeometry relative="1" as="geometry">
            <mxPoint x="550" y="360" as="targetPoint" />
            <Array as="points">
              <mxPoint x="545" y="240" />
              <mxPoint x="610" y="240" />
              <mxPoint x="610" y="360" />
              <mxPoint x="578" y="360" />
            </Array>
          </mxGeometry>
        </mxCell>
        <mxCell id="mlzkGg46ePK4YBn9WfPT-3" value="PC" style="rounded=0;whiteSpace=wrap;html=1;" vertex="1" parent="1">
          <mxGeometry x="505" y="260" width="80" height="30" as="geometry" />
        </mxCell>
        <mxCell id="mlzkGg46ePK4YBn9WfPT-6" style="edgeStyle=orthogonalEdgeStyle;rounded=0;orthogonalLoop=1;jettySize=auto;html=1;" edge="1" parent="1" source="mlzkGg46ePK4YBn9WfPT-5" target="mlzkGg46ePK4YBn9WfPT-3">
          <mxGeometry relative="1" as="geometry" />
        </mxCell>
        <mxCell id="mlzkGg46ePK4YBn9WfPT-5" value="MUX" style="rounded=0;whiteSpace=wrap;html=1;" vertex="1" parent="1">
          <mxGeometry x="505" y="310" width="80" height="30" as="geometry" />
        </mxCell>
        <mxCell id="mlzkGg46ePK4YBn9WfPT-9" value="instr" style="text;html=1;align=center;verticalAlign=middle;whiteSpace=wrap;rounded=0;" vertex="1" parent="1">
          <mxGeometry x="455" y="133" width="50" height="20" as="geometry" />
        </mxCell>
        <mxCell id="r4Oezw0hH17QhIETA--5-1" value="" style="endArrow=classic;html=1;rounded=0;entryX=1;entryY=0.5;entryDx=0;entryDy=0;" edge="1" parent="1">
          <mxGeometry width="50" height="50" relative="1" as="geometry">
            <mxPoint x="630" y="120" as="sourcePoint" />
            <mxPoint x="590" y="120" as="targetPoint" />
          </mxGeometry>
        </mxCell>
        <mxCell id="r4Oezw0hH17QhIETA--5-2" value="read" style="text;html=1;align=center;verticalAlign=middle;whiteSpace=wrap;rounded=0;" vertex="1" parent="1">
          <mxGeometry x="620" y="110" width="50" height="20" as="geometry" />
        </mxCell>
        <mxCell id="7wwF4Dl2uaCq_uWaHLKl-2" value="instr_address" style="text;html=1;align=center;verticalAlign=middle;whiteSpace=wrap;rounded=0;" vertex="1" parent="1">
          <mxGeometry x="385" y="232" width="70" height="20" as="geometry" />
        </mxCell>
        <mxCell id="7wwF4Dl2uaCq_uWaHLKl-4" style="edgeStyle=orthogonalEdgeStyle;rounded=0;orthogonalLoop=1;jettySize=auto;html=1;" edge="1" parent="1" source="mlzkGg46ePK4YBn9WfPT-3">
          <mxGeometry relative="1" as="geometry">
            <mxPoint x="640" y="240" as="targetPoint" />
            <Array as="points">
              <mxPoint x="545" y="240" />
            </Array>
          </mxGeometry>
        </mxCell>
        <mxCell id="7wwF4Dl2uaCq_uWaHLKl-5" value="" style="endArrow=classic;html=1;rounded=0;entryX=1;entryY=0.5;entryDx=0;entryDy=0;" edge="1" parent="1">
          <mxGeometry width="50" height="50" relative="1" as="geometry">
            <mxPoint x="770" y="222" as="sourcePoint" />
            <mxPoint x="730" y="222" as="targetPoint" />
          </mxGeometry>
        </mxCell>
        <mxCell id="7wwF4Dl2uaCq_uWaHLKl-6" value="push" style="text;html=1;align=center;verticalAlign=middle;whiteSpace=wrap;rounded=0;" vertex="1" parent="1">
          <mxGeometry x="760" y="212" width="50" height="20" as="geometry" />
        </mxCell>
        <mxCell id="7wwF4Dl2uaCq_uWaHLKl-7" value="pop" style="text;html=1;align=center;verticalAlign=middle;whiteSpace=wrap;rounded=0;" vertex="1" parent="1">
          <mxGeometry x="760" y="240" width="50" height="20" as="geometry" />
        </mxCell>
        <mxCell id="7wwF4Dl2uaCq_uWaHLKl-8" value="" style="endArrow=classic;html=1;rounded=0;entryX=1;entryY=0.5;entryDx=0;entryDy=0;" edge="1" parent="1">
          <mxGeometry width="50" height="50" relative="1" as="geometry">
            <mxPoint x="770" y="250" as="sourcePoint" />
            <mxPoint x="730" y="250" as="targetPoint" />
          </mxGeometry>
        </mxCell>
        <mxCell id="quOxIM-NJ3axEo_e8-E--1" value="top_n_flag" style="text;html=1;align=center;verticalAlign=middle;whiteSpace=wrap;rounded=0;" vertex="1" parent="1">
          <mxGeometry x="229" y="300" width="50" height="20" as="geometry" />
        </mxCell>
        <mxCell id="quOxIM-NJ3axEo_e8-E--2" style="edgeStyle=orthogonalEdgeStyle;rounded=0;orthogonalLoop=1;jettySize=auto;html=1;entryX=1;entryY=0.25;entryDx=0;entryDy=0;exitX=0;exitY=0.25;exitDx=0;exitDy=0;startArrow=classic;startFill=1;endArrow=none;endFill=0;" edge="1" parent="1">
          <mxGeometry relative="1" as="geometry">
            <mxPoint x="294" y="320.5" as="sourcePoint" />
            <mxPoint x="210" y="320.5" as="targetPoint" />
            <Array as="points" />
          </mxGeometry>
        </mxCell>
      </root>
    </mxGraphModel>
  </diagram>
</mxfile>
